/* XPM */
static char * net_xpm[] = {
"60 60 771 2",
"  	c #ACD6EA",
". 	c #ACD7EA",
"+ 	c #ADD8EB",
"@ 	c #ACD6E9",
"# 	c #ADD7E9",
"$ 	c #B2D8EB",
"% 	c #B4D9EB",
"& 	c #B2D8EA",
"* 	c #ADD5E7",
"= 	c #B2D7EA",
"- 	c #B7DAED",
"; 	c #B3D9EB",
"> 	c #AFD6E9",
", 	c #ADD5E8",
"' 	c #ABD5E8",
") 	c #ABD6E9",
"! 	c #ADD7EB",
"~ 	c #ADD6EB",
"{ 	c #ADD7EA",
"] 	c #AED7EA",
"^ 	c #ACD5E9",
"/ 	c #ADD6E9",
"( 	c #B4D8EA",
"_ 	c #B0D6E8",
": 	c #B3D7EA",
"< 	c #B6DAEC",
"[ 	c #AED6E8",
"} 	c #ACD5E7",
"| 	c #ACD5E8",
"1 	c #ADD6EA",
"2 	c #B1D7EA",
"3 	c #B5D7E9",
"4 	c #B4D7E9",
"5 	c #B3D8EB",
"6 	c #B0D7EA",
"7 	c #ABD4E7",
"8 	c #ABD4E6",
"9 	c #B0D6E9",
"0 	c #B3D7E9",
"a 	c #B8D9EB",
"b 	c #60070C",
"c 	c #62070D",
"d 	c #63080D",
"e 	c #64080D",
"f 	c #65080D",
"g 	c #65080E",
"h 	c #66080E",
"i 	c #64070D",
"j 	c #B1D7E9",
"k 	c #B5D9EA",
"l 	c #92191F",
"m 	c #951920",
"n 	c #951A20",
"o 	c #95191F",
"p 	c #961920",
"q 	c #961A20",
"r 	c #94191F",
"s 	c #92181E",
"t 	c #B5D9EB",
"u 	c #BCDDED",
"v 	c #5B060A",
"w 	c #6B090F",
"x 	c #89161B",
"y 	c #D22D34",
"z 	c #D32D34",
"A 	c #D32D35",
"B 	c #D32E35",
"C 	c #D12D34",
"D 	c #8A171D",
"E 	c #66080D",
"F 	c #55070B",
"G 	c #B9DBEC",
"H 	c #ADD8EA",
"I 	c #5A060A",
"J 	c #6A080F",
"K 	c #8A161B",
"L 	c #D42D34",
"M 	c #D62E35",
"N 	c #D72E36",
"O 	c #D82F36",
"P 	c #D72F36",
"Q 	c #D52E35",
"R 	c #89161C",
"S 	c #530609",
"T 	c #AFD7EB",
"U 	c #5C060B",
"V 	c #B12228",
"W 	c #CA2930",
"X 	c #C5272E",
"Y 	c #A91A20",
"Z 	c #A8191F",
"` 	c #931117",
" .	c #941116",
"..	c #951117",
"+.	c #961118",
"@.	c #961218",
"#.	c #961117",
"$.	c #951116",
"%.	c #A4171D",
"&.	c #A5181E",
"*.	c #BF242A",
"=.	c #C6272D",
"-.	c #95181D",
";.	c #60060B",
">.	c #540508",
",.	c #61060C",
"'.	c #68080E",
").	c #B02127",
"!.	c #C8292F",
"~.	c #C3262D",
"{.	c #A7191F",
"].	c #941017",
"^.	c #981218",
"/.	c #981217",
"(.	c #991217",
"_.	c #971218",
":.	c #971217",
"<.	c #971117",
"[.	c #A3171D",
"}.	c #A4171E",
"|.	c #BE232A",
"1.	c #C5262D",
"2.	c #64070C",
"3.	c #4B0407",
"4.	c #560509",
"5.	c #AB1E24",
"6.	c #B42127",
"7.	c #B11E25",
"8.	c #AC1B22",
"9.	c #A51920",
"0.	c #820E14",
"a.	c #820E13",
"b.	c #64070B",
"c.	c #65060B",
"d.	c #66060B",
"e.	c #66070B",
"f.	c #66070C",
"g.	c #66060C",
"h.	c #67070C",
"i.	c #65070B",
"j.	c #64060B",
"k.	c #6B080D",
"l.	c #800D13",
"m.	c #7F0D13",
"n.	c #A2181F",
"o.	c #A91B21",
"p.	c #AF1E25",
"q.	c #AF1F25",
"r.	c #A21B21",
"s.	c #530509",
"t.	c #480306",
"u.	c #4F0408",
"v.	c #5C070B",
"w.	c #B72128",
"x.	c #C1242B",
"y.	c #B11E24",
"z.	c #A3171E",
"A.	c #9B151B",
"B.	c #750A10",
"C.	c #770B11",
"D.	c #4C0205",
"E.	c #4D0205",
"F.	c #4E0205",
"G.	c #580408",
"H.	c #760A10",
"I.	c #740A10",
"J.	c #961419",
"K.	c #9E171C",
"L.	c #B51F26",
"M.	c #BB2228",
"N.	c #AD1D23",
"O.	c #56050A",
"P.	c #4D0307",
"Q.	c #4F0509",
"R.	c #B32027",
"S.	c #BD2229",
"T.	c #A61B21",
"U.	c #901219",
"V.	c #891017",
"W.	c #5E050A",
"X.	c #5A0509",
"Y.	c #B8DAEA",
"Z.	c #C4E0ED",
"`.	c #CCE3ED",
" +	c #BFDDEA",
".+	c #ABD5E7",
"++	c #71717A",
"@+	c #6E6F77",
"#+	c #5C0509",
"$+	c #5D050A",
"%+	c #8B1016",
"&+	c #AF1D23",
"*+	c #BA2126",
"=+	c #AD1D22",
"-+	c #4C0306",
";+	c #4E0408",
">+	c #B11F26",
",+	c #BA2128",
"'+	c #A0181E",
")+	c #840E15",
"!+	c #7D0C13",
"~+	c #470306",
"{+	c #BDDDEC",
"]+	c #C7E1EE",
"^+	c #BBDBEB",
"/+	c #AAD4E7",
"(+	c #AAD5E7",
"_+	c #7C818A",
":+	c #797E87",
"<+	c #4A0205",
"[+	c #4A0204",
"}+	c #760B10",
"|+	c #7D0C12",
"1+	c #AC1C22",
"2+	c #B92026",
"3+	c #AC1B21",
"4+	c #560409",
"5+	c #4B0306",
"6+	c #AF1F24",
"7+	c #B92126",
"8+	c #90151A",
"9+	c #520307",
"0+	c #BADCEC",
"a+	c #BFDEED",
"b+	c #BFDDED",
"c+	c #BDDDEE",
"d+	c #AAD5E8",
"e+	c #A9D5E8",
"f+	c #787C85",
"g+	c #510307",
"h+	c #580509",
"i+	c #A51A20",
"j+	c #B81F25",
"k+	c #AB1B21",
"l+	c #540408",
"m+	c #4B0206",
"n+	c #4D0408",
"o+	c #59050A",
"p+	c #AE1D23",
"q+	c #8E1419",
"r+	c #520306",
"s+	c #460204",
"t+	c #AED7EB",
"u+	c #B1D8EB",
"v+	c #B4DAEC",
"w+	c #B8DBED",
"x+	c #B9DCEC",
"y+	c #B8DBEC",
"z+	c #AFD8EB",
"A+	c #777C85",
"B+	c #4B0205",
"C+	c #A4181E",
"D+	c #B61D24",
"E+	c #AA1A20",
"F+	c #4A0206",
"G+	c #4C0408",
"H+	c #58050A",
"I+	c #AD1B21",
"J+	c #B61E24",
"K+	c #B0D7EB",
"L+	c #B5D9EC",
"M+	c #B7DBED",
"N+	c #B4D9EC",
"O+	c #B2D9EB",
"P+	c #B0D9EA",
"Q+	c #AED7E9",
"R+	c #A3181E",
"S+	c #B41D23",
"T+	c #530408",
"U+	c #4C0407",
"V+	c #57050A",
"W+	c #AC1B20",
"X+	c #B51D23",
"Y+	c #8D1318",
"Z+	c #470204",
"`+	c #B0D8EB",
" @	c #B5DAED",
".@	c #ABD7E8",
"+@	c #ABD6E8",
"@@	c #A2181E",
"#@	c #B31D23",
"$@	c #A6191F",
"%@	c #530409",
"&@	c #55050A",
"*@	c #B21D23",
"=@	c #8C1318",
"-@	c #510306",
";@	c #AED8EB",
">@	c #ACD7E9",
",@	c #490205",
"'@	c #A1181E",
")@	c #B11C22",
"!@	c #8C1217",
"~@	c #450204",
"{@	c #AED6EA",
"]@	c #A1171D",
"^@	c #AF1C22",
"/@	c #530307",
"(@	c #A81A20",
"_@	c #8B1217",
":@	c #AFD7EA",
"<@	c #9F171D",
"[@	c #AE1B21",
"}@	c #A2181D",
"|@	c #4C0307",
"1@	c #B01C22",
"2@	c #8A1217",
"3@	c #A2171D",
"4@	c #AB1B20",
"5@	c #550409",
"6@	c #A5191F",
"7@	c #500306",
"8@	c #450104",
"9@	c #9D161C",
"0@	c #AB1A20",
"a@	c #A0171D",
"b@	c #480205",
"c@	c #540409",
"d@	c #891217",
"e@	c #B6D9E9",
"f@	c #BEDDEB",
"g@	c #A4191E",
"h@	c #881116",
"i@	c #440104",
"j@	c #AFD7E9",
"k@	c #BBDBEA",
"l@	c #C5E0EC",
"m@	c #ACD4E7",
"n@	c #9B161B",
"o@	c #9F161C",
"p@	c #470205",
"q@	c #A3191E",
"r@	c #ABD5E9",
"s@	c #B9DAEA",
"t@	c #C2DEEB",
"u@	c #9A151A",
"v@	c #A91A1F",
"w@	c #9E161C",
"x@	c #4F0306",
"y@	c #B0D7E9",
"z@	c #B2D8E9",
"A@	c #777B85",
"B@	c #ADD5E9",
"C@	c #A9191F",
"D@	c #9E161B",
"E@	c #A3181D",
"F@	c #4F0206",
"G@	c #B7D9E9",
"H@	c #BCDBEB",
"I@	c #99151A",
"J@	c #A6191E",
"K@	c #9D161B",
"L@	c #871116",
"M@	c #440103",
"N@	c #AFD6E8",
"O@	c #B7D9E8",
"P@	c #C2DDEA",
"Q@	c #CAE2ED",
"R@	c #BFDCEB",
"S@	c #AED5E7",
"T@	c #981419",
"U@	c #9C141A",
"V@	c #A1181D",
"W@	c #861115",
"X@	c #AED5E8",
"Y@	c #B7D8E8",
"Z@	c #BFDBE9",
"`@	c #C7DFEB",
" #	c #CDE3ED",
".#	c #C0DDEB",
"+#	c #490204",
"@#	c #9A141A",
"##	c #A0171C",
"$#	c #861015",
"%#	c #430103",
"&#	c #7C808A",
"*#	c #B2D6E7",
"=#	c #C4DEEB",
"-#	c #CBE1EB",
";#	c #C9E0EB",
">#	c #C2DEEA",
",#	c #ADD6E8",
"'#	c #480204",
")#	c #971319",
"!#	c #A3161D",
"~#	c #99141A",
"{#	c #9F171C",
"]#	c #A7191E",
"^#	c #841015",
"/#	c #4E0206",
"(#	c #777B84",
"_#	c #B1D6E8",
":#	c #BBDAE9",
"<#	c #CCE2ED",
"[#	c #CEE3EC",
"}#	c #C4DEEA",
"|#	c #B3D7E8",
"1#	c #951319",
"2#	c #98131A",
"3#	c #831015",
"4#	c #767B84",
"5#	c #B2D7E8",
"6#	c #C6DFEB",
"7#	c #BEDCE9",
"8#	c #B6D8E8",
"9#	c #941318",
"0#	c #A2161D",
"a#	c #9D151B",
"b#	c #820F14",
"c#	c #7C8089",
"d#	c #AED6E9",
"e#	c #B9D9E8",
"f#	c #C8E0EC",
"g#	c #CEE4EE",
"h#	c #BFDCEA",
"i#	c #B4D8E8",
"j#	c #ACD6E8",
"k#	c #911117",
"l#	c #9F151C",
"m#	c #961319",
"n#	c #9C151B",
"o#	c #7B8089",
"p#	c #B3D8EA",
"q#	c #BCDCEA",
"r#	c #C6E0ED",
"s#	c #901117",
"t#	c #9C141B",
"u#	c #941218",
"v#	c #9B141B",
"w#	c #810E14",
"x#	c #420103",
"y#	c #BCDCEB",
"z#	c #CAE2EE",
"A#	c #CDE3EE",
"B#	c #470104",
"C#	c #8E1016",
"D#	c #921117",
"E#	c #4D0206",
"F#	c #800E13",
"G#	c #767A83",
"H#	c #C7E1ED",
"I#	c #B9DAE9",
"J#	c #8E0F15",
"K#	c #9A1319",
"L#	c #98141A",
"M#	c #7D0D12",
"N#	c #B3D9EC",
"O#	c #727680",
"P#	c #7B7F88",
"Q#	c #CBE3EE",
"R#	c #CCE3EE",
"S#	c #C1DEEB",
"T#	c #B6D9EA",
"U#	c #8C0F15",
"V#	c #991219",
"W#	c #8F1016",
"X#	c #96141A",
"Y#	c #7C0D12",
"Z#	c #757A83",
"`#	c #797D87",
" $	c #7A7E87",
".$	c #7A7E88",
"+$	c #787D86",
"@$	c #777C84",
"#$	c #71767F",
"$$	c #890F15",
"%$	c #971219",
"&$	c #460205",
"*$	c #931319",
"=$	c #7B0C12",
"-$	c #410C10",
";$	c #868990",
">$	c #8C8F95",
",$	c #8E9197",
"'$	c #909399",
")$	c #919399",
"!$	c #91939A",
"~$	c #888C92",
"{$	c #7F8389",
"]$	c #470F14",
"^$	c #880F14",
"/$	c #961219",
"($	c #8C1016",
"_$	c #931219",
":$	c #9A131A",
"<$	c #7A0C12",
"[$	c #4F393E",
"}$	c #6B7178",
"|$	c #6C727A",
"1$	c #767C84",
"2$	c #9FA1A5",
"3$	c #B4B5B8",
"4$	c #B7B8BB",
"5$	c #BBBCBE",
"6$	c #BCBCBE",
"7$	c #BBBCBF",
"8$	c #ACADAF",
"9$	c #9A9DA1",
"0$	c #767B83",
"a$	c #70767D",
"b$	c #696E76",
"c$	c #676C75",
"d$	c #503B3F",
"e$	c #880E14",
"f$	c #951118",
"g$	c #921118",
"h$	c #543F43",
"i$	c #7E8288",
"j$	c #80848A",
"k$	c #8C9096",
"l$	c #90949B",
"m$	c #A3A4A8",
"n$	c #AEAFB2",
"o$	c #B0B1B3",
"p$	c #B2B3B5",
"q$	c #B2B3B6",
"r$	c #B1B2B5",
"s$	c #ADADB0",
"t$	c #A6A7AA",
"u$	c #9B9DA1",
"v$	c #84888D",
"w$	c #7B7F85",
"x$	c #7A7E84",
"y$	c #574448",
"z$	c #870E14",
"A$	c #8A0F15",
"B$	c #8F1117",
"C$	c #951219",
"D$	c #655557",
"E$	c #A2A4A7",
"F$	c #A5A7A9",
"G$	c #B6B6B9",
"H$	c #9B9EA2",
"I$	c #787D85",
"J$	c #777D85",
"K$	c #757B82",
"L$	c #8C8F93",
"M$	c #A7A8AB",
"N$	c #9C9FA2",
"O$	c #65555C",
"P$	c #830E13",
"Q$	c #901116",
"R$	c #860E14",
"S$	c #8D1016",
"T$	c #971118",
"U$	c #75090F",
"V$	c #645254",
"W$	c #A0A2A6",
"X$	c #A2A4A8",
"Y$	c #B0B1B4",
"Z$	c #B2B3B8",
"`$	c #A6ABB0",
" %	c #929AA3",
".%	c #919AA3",
"+%	c #939AA3",
"@%	c #929AA2",
"#%	c #919AA2",
"$%	c #9199A2",
"%%	c #9099A2",
"&%	c #8F98A1",
"*%	c #9098A1",
"=%	c #9CA1A7",
"-%	c #B0B2B6",
";%	c #A6A8AB",
">%	c #66565C",
",%	c #810D12",
"'%	c #850E14",
")%	c #4F3B41",
"!%	c #6E747C",
"~%	c #70767E",
"{%	c #98A4B1",
"]%	c #AEBCCD",
"^%	c #AEBDCD",
"/%	c #ADBCCD",
"(%	c #AEBDCE",
"_%	c #ADBCCC",
":%	c #ADBBCC",
"<%	c #ACBBCC",
"[%	c #ABBBCB",
"}%	c #ABBACB",
"|%	c #AABACB",
"1%	c #9DA9B7",
"2%	c #737981",
"3%	c #6D737B",
"4%	c #6A7078",
"5%	c #534348",
"6%	c #6B070D",
"7%	c #790B11",
"8%	c #72080E",
"9%	c #400103",
"0%	c #750B10",
"a%	c #7C0C12",
"b%	c #460103",
"c%	c #6E757D",
"d%	c #6F757D",
"e%	c #A9BACA",
"f%	c #9BA7B6",
"g%	c #696F77",
"h%	c #514146",
"i%	c #69080D",
"j%	c #780B11",
"k%	c #70090F",
"l%	c #99A9B7",
"m%	c #9AABB9",
"n%	c #8CA0AE",
"o%	c #8A9FAD",
"p%	c #A8B6C4",
"q%	c #B6C2D1",
"r%	c #B6C3D1",
"s%	c #BECBD9",
"t%	c #C2CDDB",
"u%	c #CDD7E3",
"v%	c #CED8E3",
"w%	c #CDD8E4",
"x%	c #CDD7E4",
"y%	c #CDD8E5",
"z%	c #CED8E5",
"A%	c #CED9E6",
"B%	c #CED9E5",
"C%	c #CCD7E4",
"D%	c #C8D4E1",
"E%	c #B1C0CF",
"F%	c #B0C0CF",
"G%	c #AEBFCD",
"H%	c #AEBECD",
"I%	c #AFBDCC",
"J%	c #B0BCCB",
"K%	c #98A9B7",
"L%	c #879BA8",
"M%	c #8A9EAB",
"N%	c #98A9B6",
"O%	c #96A5B2",
"P%	c #96A2B2",
"Q%	c #95A2B2",
"R%	c #8895A4",
"S%	c #8794A3",
"T%	c #A5B2C2",
"U%	c #B2C0D1",
"V%	c #B3C1D1",
"W%	c #BCC9DA",
"X%	c #BFCBDC",
"Y%	c #CBD6E3",
"Z%	c #C8D3E1",
"`%	c #ABBBCC",
" &	c #A8B9C9",
".&	c #A7B7C9",
"+&	c #A7B6C8",
"@&	c #929FB0",
"#&	c #83909E",
"$&	c #8693A2",
"%&	c #929FAE",
"&&	c #909CAB",
"*&	c #9DABBB",
"=&	c #A2AFBF",
"-&	c #B4C0D0",
";&	c #BDC9D9",
">&	c #C2CEDC",
",&	c #D7DFEA",
"'&	c #D8DFEA",
")&	c #DDE3ED",
"!&	c #DDE4ED",
"~&	c #DCE3ED",
"{&	c #DDE3EE",
"]&	c #DDE4EE",
"^&	c #DEE4EE",
"/&	c #CCD7E3",
"(&	c #C1CDDC",
"_&	c #C0CCDB",
":&	c #C0CCDA",
"<&	c #BFCCDA",
"[&	c #BECAD9",
"}&	c #BCC9D8",
"|&	c #BBC9D7",
"1&	c #BBC8D7",
"2&	c #B9C6D6",
"3&	c #AFBDCE",
"4&	c #9EACBD",
"5&	c #94A2B3",
"6&	c #929FAF",
"7&	c #B5D8E9",
"8&	c #BCC8D9",
"9&	c #C3CEDD",
"0&	c #CBD5E2",
"a&	c #E6EBF3",
"b&	c #E7EBF3",
"c&	c #CAD5E3",
"d&	c #C9D5E2",
"e&	c #C6D2E0",
"f&	c #C5D1DF",
"g&	c #C3CFDE",
"h&	c #B5C2D3",
"i&	c #B1BFD0",
"j&	c #A7B6C7",
"k&	c #A2B0C2",
"l&	c #9FADBF",
"m&	c #C4DFED",
"n&	c #C5DFED",
"o&	c #ACBACB",
"p&	c #B2BFD1",
"q&	c #C2CDDD",
"r&	c #C9D3E1",
"s&	c #E0E6EF",
"t&	c #E1E7F0",
"u&	c #E4EAF2",
"v&	c #E8ECF3",
"w&	c #D6DEEA",
"x&	c #D6DEE9",
"y&	c #D5DEE9",
"z&	c #D6DFEA",
"A&	c #D5DDE9",
"B&	c #CAD5E2",
"C&	c #C8D4E2",
"D&	c #C2CEDD",
"E&	c #C1CEDC",
"F&	c #C0CBDB",
"G&	c #B3C0D0",
"H&	c #A6B4C6",
"I&	c #C3DFED",
"J&	c #C0DEED",
"K&	c #B1D8EA",
"L&	c #BECADB",
"M&	c #C1CDDD",
"N&	c #C6D2E1",
"O&	c #C7D2E1",
"P&	c #C7D3E2",
"Q&	c #E9ECF3",
"R&	c #E4E9F2",
"S&	c #C0CDDC",
"T&	c #B4C2D3",
"U&	c #B5C3D4",
"V&	c #B9DBEB",
"W&	c #BADBEB",
"X&	c #B7DAEB",
"Y&	c #C5D1E0",
"Z&	c #C4D0DF",
"`&	c #BFCBDA",
" *	c #CDD6E2",
".*	c #D5DCE7",
"+*	c #D6DDE7",
"@*	c #D7DEE8",
"#*	c #D8DFE8",
"$*	c #D8DEE8",
"%*	c #D8DFE9",
"&*	c #D8DEE9",
"**	c #D9DFE9",
"=*	c #D6DEE8",
"-*	c #D4DBE7",
";*	c #C1CDDB",
">*	c #BECBDA",
",*	c #BAC7D7",
"'*	c #B6C4D5",
")*	c #B6C3D4",
"!*	c #B8C5D6",
"~*	c #B7C4D5",
"{*	c #B6C4D4",
"]*	c #BDCADB",
"^*	c #BBC8D9",
"/*	c #BDCADA",
"(*	c #ABB9CA",
"_*	c #AAB9CA",
":*	c #AAB8C9",
"<*	c #AAB9C9",
"[*	c #AAB8CA",
"}*	c #A9B8C9",
"|*	c #A9B8C8",
"1*	c #A8B8C8",
"2*	c #A8B7C9",
"3*	c #A8B7C8",
"4*	c #A8B8C9",
"5*	c #B0BECF",
"6*	c #B9C5D6",
"            . . + + . .               @ # $ % & * = - ; > , ' )       . + + + ! ~     { ]                         ^ ^ @ ",
". .           . . . .                 @ / $ % ( _ : < $ [ } | @     . + + + + ! ~     1 1                         ^ | | ",
". . .                                   1 2 ( 3 4 ( 5 6 , 7 ^       . + + + + ! ~                                 ^ ' 8 ",
"  . . .     .                             1 9 0 a ( [ | | ^         ! + + + + ! ~         .                       @ | 7 ",
"  . ! + ! ! . b c d d e f g g g f e g f g f g f h f f g g e e f g f e e e e e i g e f g f f e f f e e d b         @ j k ",
"  . + + ! ! ! l m n o m p p p p q q q q q p q p q q p p n q q q o q o o o q q o m p q q p p p p q q o r s         @ t u ",
"  . . + v w x y y z z y z z A A A A z A z z A A A A B z z A A z y A z z z z A z z z z y y z z y y z C C C D E F     ; G ",
"    . H I J K L M N N O P O O O O O O O O O P O O O O O O O O O P O O P P P O P O O O P P O P P P P M Q L R i S     T $ ",
"    U d V W X Y Z `  .............+.@.#.........+...............$.....$.$. .$...........$.$.$. .` ` @.%.&.*.=.-.;.>.    ",
"@   ,.'.).!.~.{.{.].#.^.^.^.^././.^.^.^.^.^.(.^.(././.^.^.^.^./.^.^._.^.^._._.^.^././._._.:.<.<.+...^.[.}.|.1.-.2.I     ",
"3.4.5.6.7.8.9.0.a.b.c.d.d.e.e.e.d.f.g.d.f.d.h.d.h.d.e.f.e.e.c.c.d.e.d.d.c.c.c.c.i.d.d.d.c.j.j.j.j.c.k.l.m.n.o.p.q.r.s.t.",
"u.v.w.x.y.z.A.B.C.D.D.D.D.E.E.D.D.E.E.D.D.D.F.E.F.F.F.E.F.F.E.E.D.E.D.E.E.D.D.D.D.D.D.D.D.D.D.D.D.E.G.H.I.J.K.L.M.N.O.P.",
"Q.v.R.S.T.U.V.W.X.        @ @ [ Y.Z.`. +* 8 .+' @ ! + + ! ++@+                                        #+$+0.%+&+*+=+4.-+",
";+v >+,+'+)+!+D.~+        ) / k {+Z.]+^+7 /+(+|   ! + + + _+:+                                        <+[+}+|+1+2+3+4+5+",
";+I 6+7+8+G.9+            @ 6 0+a+b+c+; d+e+' ^ { ! + + + _+f+                                            g+h+i+j+k+l+m+",
"n+o+p+j+q+r+s+          t+u+v+w+x+y+v+z+) d+' @   ! ! + + _+A+! !                                         B+r+C+D+E+l+F+",
"G+H+I+J+q+r+s+        1 K+L+M+N+O+P+Q+@ ' ' ' @ @   . ! ! _+A+!                                           <+r+R+S+{.T+<+",
"U+V+W+X+Y+9+Z+        1 `+ @- u+# .@+@' ' ' @ @ @         _+A+                                            <+r+@@#@$@%@<+",
"U+&@E+*@=@-@s+          ;@`+u+t+>@.@@ @ @                 _+A+                                            ,@9+'@)@C+T+<+",
"G+4.Y )@!@9+~@          ! ! t+! . . .                     _+A+                                  1 {@1     <+9+]@^@R+/@,@",
"U+4+(@)@_@-@~@          ! ! ! ! ! ! .                     _+A+                                1 :@:@:@1   <+r+<@[@}@T+,@",
"|@4.(@1@2@-@s+                                          @ _+A+@                               1 T `+T 1   <+9+<@3+3@/@,@",
"|@4.$@^@2@-@~@                                    @ ^ ^ ' _+A+.+^                               ] t+]     <+9+<@4@]@T+,@",
"|@5@6@I+2@7@8@                                  @ @ , [ _ _+A+8 7 ^                                       ,@r+9@0@a@9+b@",
"5+c@6@3+d@7@8@  ^           ^   @ )               @ Q+e@f@_+A+8 7 | ^ ^                                   <+r+9@0@a@9+b@",
"5+T+g@3+h@7@i@' ^             @ ^ ^               @ j@k@l@_+A+8 8 7 m@|                       @           ,@r+n@E+o@9+p@",
"5+%@q@3+h@7@8@' r@            @ @ ^                 j@s@t@_+A+8 8 8 8 7 @                   ^ ' @         ,@r+u@v@w@9+p@",
"5+%@}@4@h@x@8@@ @ @ @ ^     @                       1 y@z@_+A@7 7 .+8 7 @             1 B@B@, | @         ,@r+u@C@D@9+p@",
"5+%@E@0@h@F@8@    @ @     @ @ @                         @ _+A@r@^ | ' | @         @ @ j G@H@e@, | @       ,@9+I@J@K@9+s+",
"5+T+E@E+L@F@M@            @ ^ @                           _+A@      @ ^         @ @ N@O@P@Q@R@S@' )       ,@-@T@&.U@9+Z+",
"m+T+V@v@W@F@M@                            r@^ ^           _+A@                @ | X@Y@Z@`@ #.#S@.+)       +#-@T@%.@#g+p@",
"<+T+##v@$#F@%#                            @ ^             &#A@                @ 7 *#=#-#;#>#G@,#|   . .   '#-@)#!#~#-@~@",
",@/@{#]#^#/#%#                                            _+(#              @ , _#:#<#[#}#|#| @     ! .   '#7@1#!#2#7@~@",
",@9+D@&.3#F.M@    ^ @                                     _+4#            @ , 5#.#Q@6#7#8#[ ^             Z+x@9#0#2#x@~@",
",@r+a#C+b#/#M@    @ @                                     c#4#            d#5#e#f#g#h#i#[ j#@             '#/#k#l#m#x@~@",
"b@9+n#%.b#E.%#                                            o#(#          @ p#q#>#f#r#Y.N@' @   .           '#/#s#t#u#F@8@",
"b@r+v#!#w#E.x#          @ @ @                             o#(#        ^ [ y#z#A#t@i#N@| ' @               B#F.C#@#D#E#8@",
"p@r+v#0#F#E.x#      t+`+6 d#| @                           o#G#      @ j f@H#Q@l@I#* } | @ @               B#E.J#K#k#E#8@",
"p@-@L#o@M#E.%#  @   T N#% 9 } @                         O#P#A+      @ e@Q#R#S#T#N@| j#@ @                 B#E.U#V#W#E.8@",
"s+r+X#a#Y#E.%#      T Z#`#`# $.$.$.$ $.$ $.$.$.$.$.$.$.$.$.$.$ $ $.$ $.$.$.$ $.$.$ $ $.$ $ $+$@$#$    1   Z+E.$$%$C#D.8@",
"&$7@*$A.=$D.-$      {@;$>$,$'$)$'$)$)$)$)$)$!$)$'$'$)$'$'$'$'$'$'$)$)$)$!$)$!$)$)$)$'$)$'$'$>$~${$        ]$D.^$/$($D.i@",
"&$F@_$:$<$D.[$}$|$1$P#2$3$4$5$5$5$5$5$5$5$5$6$5$5$5$5$5$5$5$5$5$5$5$5$5$5$5$7$5$5$5$5$5$5$5$3$8$9$0$a$b$c$d$D.e$f$U#D.i@",
"~@E#g$2#C.D.h$i$j$k$l$m$n$o$p$q$q$q$q$q$p$q$q$q$q$q$q$p$q$p$q$p$p$q$p$p$p$p$p$q$p$p$p$p$p$r$s$t$u$>$v$w$x$y$D.z$..A$D.%#",
"~@D.B$C$H.D.D$E$F$p$G$H$A+A+I$I$+$+$+$I$+$+$I$I$I$I$I$A+A+A+A+A+J$A+A+A+A+A+I$I$I$I$J$I$A+A+1$K$L$r$M$N$u$O$D.P$Q$R$D.%#",
"s+E.S$T$U$D.V$W$X$Y$Z$`$ %.% % % %+% % % %+%+% %@%#%#%$%#%@%%%%%#%$%%%$%$%$%#% %$%#%%%%%%%%%&%*%=%-%;%H$9$>%B+,%W#'%D.%#",
"i@B+H.|+c.+#)%!%~%f+`#{%]%]%]%^%/%/%/%]%^%(%(%]%]%/%_%:%<%<%<%<%<%<%<%:%_%:%/%/%_%<%[%}%}%[%|%|%1%J$2%3%4%5%B#6%7%8%+#9%",
"i@B+0%a%j.b%)%c%d%A+:+{%]%]%^%]%^%(%]%/%/%^%]%]%]%/%]%/%<%<%<%<%<%<%<%:%:%<%:%:%:%<%}%}%}%}%|%e%f%A+2%|$g%h%M@i%j%k%B#9%",
"l%m%n%o%p%q%r%s%t%u%v%w%w%x%y%z%y%y%y%y%z%y%z%A%B%y%y%y%C%C%C%C%C%C%C%C%C%C%x%C%C%D%_%:%<%<%<%<%^%E%F%G%H%I%J%K%L%M%N%O%",
"P%Q%R%S%T%U%V%W%X%C%y%C%y%y%y%y%y%y%y%y%y%y%y%y%y%w%C%Y%Y%Y%Y%Y%Y%Y%Y%Y%Y%Y%Y%Y%Y%Z%/%:%<%<%[%`%}%[%|%|% &.&+&@&#&$&%&&&",
",#, *&=&-&;&>&,&'&)&)&!&~&~&{&!&]&^&]&]&!&]&^&]&]&!&)&Y%Y%Y%Y%Y%Y%Y%Y%Y%/&C%C%C%C%Y%(&_&:&<&s%[&}&}&|&1&2&3&<%4&5&6&    ",
"7&7&3&U%8&9&0&a&a&a&a&a&a&a&b&b&b&b&b&b&b&b&a&a&a&b&b&Y%C%Y%Y%Y%/&Y%/&C%C%C%y%y%y%y%Y%Y%Y%c&d&Z%e&e&f&f&g&h&i&j&k&l&    ",
"m&n&o&p&;&q&r&s&s&s&s&t&t&u&b&b&v&b&b&v&v&b&b&b&v&v&v&w&x&y&y&y&y&x&y&z&z&z&,&,&,&A&Y%C%Y%Y%B&C&e&D&D&E&F&G&]%H&k&l&    ",
"I&m&J&K&L&M&q&e&e&N&O&P&c&!&b&b&v&b&b&v&v&v&Q&v&v&v&b&b&b&b&b&b&b&b&b&v&b&b&b&a&a&R&C%C%Y%Y%c&C&S&T&T&U&U&              ",
"V&W&X&:@@ M&M&e&Y&Z&Z&(&`& *.*+*+*+*+*@*@*@*#*$*%*&*&*&*%*&*%*&*%***&*%*%*&*&*&*=*-*;*_&<&`&>*[&,*'*)*!*~*              ",
":@:@:@1 @ @       q&q&{*<%<%<%[%<%[%}%`%`%}%[%}%}%`%}%}%|%}%}%|%}%}%}%}%|%|%}%}%[%[%}%}%}%`%<%<%U%]*^*                  ",
"                  L&/*V%(*_*:*<*[*}*}*}*}*}*}*}*}*}*}*}*}*|*|*|*}*1*}*2*}*1*3*1*}*|*4*}*}*:*_*(*5*^*6*                  ",
"            . .                                 ^ @ @                                                                   ",
"            ! .                                   @ @                                                                   ",
"! ! .                                                                                                                   ",
"+ + +                                                                                                                   "};
