/* XPM */
static char * puck_xpm[] = {
"60 60 621 2",
"  	c #ACD6EA",
". 	c #ACD7EA",
"+ 	c #ADD8EB",
"@ 	c #ACD6E9",
"# 	c #ADD7E9",
"$ 	c #B2D8EB",
"% 	c #B4D9EB",
"& 	c #B2D8EA",
"* 	c #ADD5E7",
"= 	c #B2D7EA",
"- 	c #B7DAED",
"; 	c #B3D9EB",
"> 	c #AFD6E9",
", 	c #ADD5E8",
"' 	c #ABD5E8",
") 	c #ABD6E9",
"! 	c #ADD7EB",
"~ 	c #ADD6EB",
"{ 	c #ADD7EA",
"] 	c #AED7EA",
"^ 	c #ACD5E9",
"/ 	c #ADD6E9",
"( 	c #B4D8EA",
"_ 	c #B0D6E8",
": 	c #B3D7EA",
"< 	c #B6DAEC",
"[ 	c #AED6E8",
"} 	c #ACD5E7",
"| 	c #ACD5E8",
"1 	c #ADD6EA",
"2 	c #B1D7EA",
"3 	c #B5D7E9",
"4 	c #B4D7E9",
"5 	c #B3D8EB",
"6 	c #B0D7EA",
"7 	c #ABD4E7",
"8 	c #ABD4E6",
"9 	c #B0D6E9",
"0 	c #B3D7E9",
"a 	c #B8D9EB",
"b 	c #AFD6E8",
"c 	c #B3D7E8",
"d 	c #B4D7EA",
"e 	c #B1D7E9",
"f 	c #B5D9EA",
"g 	c #ACD7EB",
"h 	c #AED6E9",
"i 	c #B4D7E8",
"j 	c #B7D8EA",
"k 	c #B5D9EB",
"l 	c #BCDDED",
"m 	c #ABD5E7",
"n 	c #ADD6E8",
"o 	c #B4D8E9",
"p 	c #B9DBEC",
"q 	c #ADD8EA",
"r 	c #ABD5E9",
"s 	c #B3D8EA",
"t 	c #B6D9EA",
"u 	c #B5D8EA",
"v 	c #AFD7EB",
"w 	c #B0D7E9",
"x 	c #ACD4E6",
"y 	c #B6D9EC",
"z 	c #B5D9E9",
"A 	c #B7D9EB",
"B 	c #1E1C1E",
"C 	c #1D1A1C",
"D 	c #1D1A1B",
"E 	c #1E1A1C",
"F 	c #1E1A1D",
"G 	c #201C1E",
"H 	c #B2D8E9",
"I 	c #BBDCEB",
"J 	c #1F1B1C",
"K 	c #1F1B1B",
"L 	c #282325",
"M 	c #342E31",
"N 	c #373033",
"O 	c #373032",
"P 	c #363031",
"Q 	c #363032",
"R 	c #362F31",
"S 	c #393234",
"T 	c #383234",
"U 	c #302B2D",
"V 	c #231F20",
"W 	c #1F1A1C",
"X 	c #201B1C",
"Y 	c #312B2D",
"Z 	c #322C2E",
"` 	c #352F31",
" .	c #3A3337",
"..	c #40383B",
"+.	c #42393D",
"@.	c #423A3C",
"#.	c #413A3B",
"$.	c #403A3C",
"%.	c #40393C",
"&.	c #41393C",
"*.	c #41393B",
"=.	c #42393C",
"-.	c #433B3D",
";.	c #40383A",
">.	c #332C2E",
",.	c #30292B",
"'.	c #2F282B",
").	c #2F282A",
"!.	c #2A2528",
"~.	c #322B2F",
"{.	c #3F373A",
"].	c #473E41",
"^.	c #494043",
"/.	c #494143",
"(.	c #463E41",
"_.	c #3F383D",
":.	c #373036",
"<.	c #332C32",
"[.	c #332C31",
"}.	c #332C30",
"|.	c #322C30",
"1.	c #322B31",
"2.	c #322C31",
"3.	c #373034",
"4.	c #3F373B",
"5.	c #453C3F",
"6.	c #453C3E",
"7.	c #443A3E",
"8.	c #3E3639",
"9.	c #332D2F",
"0.	c #282426",
"a.	c #252123",
"b.	c #232022",
"c.	c #3A3234",
"d.	c #40383D",
"e.	c #3D363A",
"f.	c #362F35",
"g.	c #2C262E",
"h.	c #272129",
"i.	c #272128",
"j.	c #262128",
"k.	c #262129",
"l.	c #272228",
"m.	c #2B252B",
"n.	c #342D32",
"o.	c #3B3438",
"p.	c #3C3338",
"q.	c #3C3339",
"r.	c #3C3439",
"s.	c #3C3538",
"t.	c #3D3638",
"u.	c #3C3537",
"v.	c #373134",
"w.	c #383033",
"x.	c #473F42",
"y.	c #453D41",
"z.	c #3A3338",
"A.	c #2C272D",
"B.	c #28232A",
"C.	c #29232A",
"D.	c #282229",
"E.	c #262028",
"F.	c #241F27",
"G.	c #241E27",
"H.	c #241E26",
"I.	c #231E26",
"J.	c #241F26",
"K.	c #252027",
"L.	c #262029",
"M.	c #27212A",
"N.	c #29232C",
"O.	c #2C252E",
"P.	c #342C34",
"Q.	c #423A3D",
"R.	c #393335",
"S.	c #2C2729",
"T.	c #292627",
"U.	c #2F292C",
"V.	c #362E32",
"W.	c #41373B",
"X.	c #463C3F",
"Y.	c #433A3E",
"Z.	c #3C3539",
"`.	c #373035",
" +	c #342D33",
".+	c #2D282E",
"++	c #231E25",
"@+	c #221D25",
"#+	c #251E28",
"$+	c #27212B",
"%+	c #2B252F",
"&+	c #2D2631",
"*+	c #2E2731",
"=+	c #312933",
"-+	c #352E36",
";+	c #373037",
">+	c #393237",
",+	c #3D3639",
"'+	c #3E373A",
")+	c #3A3436",
"!+	c #312C2E",
"~+	c #2B2728",
"{+	c #3D3539",
"]+	c #3E353A",
"^+	c #3F363A",
"/+	c #383136",
"(+	c #302930",
"_+	c #272229",
":+	c #231D25",
"<+	c #252028",
"[+	c #28222B",
"}+	c #2A222D",
"|+	c #2C252F",
"1+	c #2E2732",
"2+	c #2F2732",
"3+	c #2E2631",
"4+	c #2C262F",
"5+	c #2B252E",
"6+	c #2A242D",
"7+	c #2A242C",
"8+	c #2D272D",
"9+	c #332D32",
"0+	c #393236",
"a+	c #3A3437",
"b+	c #373133",
"c+	c #352F30",
"d+	c #453D40",
"e+	c #362E35",
"f+	c #2B242C",
"g+	c #251F28",
"h+	c #27222B",
"i+	c #2D2530",
"j+	c #2C242F",
"k+	c #2A232D",
"l+	c #26202A",
"m+	c #251F27",
"n+	c #29242A",
"o+	c #3A3336",
"p+	c #3A3135",
"q+	c #3D3438",
"r+	c #3E373B",
"s+	c #363034",
"t+	c #2B252C",
"u+	c #241F25",
"v+	c #221E25",
"w+	c #241F28",
"x+	c #252029",
"y+	c #2B232E",
"z+	c #2B242F",
"A+	c #2A232E",
"B+	c #27202A",
"C+	c #261F29",
"D+	c #251F29",
"E+	c #241E28",
"F+	c #231E27",
"G+	c #221D26",
"H+	c #2C252C",
"I+	c #383035",
"J+	c #40373C",
"K+	c #3E363A",
"L+	c #2A2527",
"M+	c #3C3437",
"N+	c #3B3337",
"O+	c #342E32",
"P+	c #2B262C",
"Q+	c #252026",
"R+	c #221D24",
"S+	c #211D24",
"T+	c #211D23",
"U+	c #29232D",
"V+	c #28212B",
"W+	c #30292F",
"X+	c #3B3437",
"Y+	c #312C2D",
"Z+	c #2A2526",
"`+	c #40373A",
" @	c #3C3438",
".@	c #2C262C",
"+@	c #231F26",
"@@	c #211C23",
"#@	c #27222A",
"$@	c #28222C",
"%@	c #29242D",
"&@	c #2A242E",
"*@	c #28212A",
"=@	c #312B2F",
"-@	c #3A3435",
";@	c #322D2D",
">@	c #241F21",
",@	c #3A3235",
"'@	c #3D3439",
")@	c #2B242A",
"!@	c #28232C",
"~@	c #302B2F",
"{@	c #3D3739",
"]@	c #3E3839",
"^@	c #322C2D",
"/@	c #151212",
"(@	c #0B0A0C",
"_@	c #211D1F",
":@	c #3A3335",
"<@	c #3E3539",
"[@	c #29222C",
"}@	c #3E383A",
"|@	c #403A3A",
"1@	c #373232",
"2@	c #0A090B",
"3@	c #1D191B",
"4@	c #342D2F",
"5@	c #3F3739",
"6@	c #2E282D",
"7@	c #26212A",
"8@	c #28212C",
"9@	c #362F33",
"0@	c #3B3536",
"a@	c #383333",
"b@	c #080709",
"c@	c #131012",
"d@	c #251F22",
"e@	c #362E31",
"f@	c #352E33",
"g@	c #2E272E",
"h@	c #29222B",
"i@	c #241E25",
"j@	c #282329",
"k@	c #3B3336",
"l@	c #302A2C",
"m@	c #070609",
"n@	c #0B090C",
"o@	c #171416",
"p@	c #2C2628",
"q@	c #383134",
"r@	c #3B3338",
"s@	c #312931",
"t@	c #2B242D",
"u@	c #2F292D",
"v@	c #332C2F",
"w@	c #241F22",
"x@	c #191619",
"y@	c #09080B",
"z@	c #110F12",
"A@	c #221E21",
"B@	c #312B2E",
"C@	c #3A3238",
"D@	c #29232B",
"E@	c #231F27",
"F@	c #231D24",
"G@	c #292429",
"H@	c #332D31",
"I@	c #352F32",
"J@	c #322C2F",
"K@	c #282326",
"L@	c #1B171C",
"M@	c #121015",
"N@	c #060708",
"O@	c #09090C",
"P@	c #100F12",
"Q@	c #18161A",
"R@	c #242023",
"S@	c #302A2D",
"T@	c #3F363B",
"U@	c #2E282F",
"V@	c #262027",
"W@	c #2A242A",
"X@	c #362F32",
"Y@	c #2E282B",
"Z@	c #252023",
"`@	c #1B181D",
" #	c #161418",
".#	c #131216",
"+#	c #100F13",
"@#	c #141217",
"##	c #19161B",
"$#	c #201B1F",
"%#	c #272225",
"&#	c #372F33",
"*#	c #40383C",
"=#	c #41393D",
"-#	c #40373B",
";#	c #362E33",
">#	c #251F26",
",#	c #231F25",
"'#	c #262127",
")#	c #2E272D",
"!#	c #3A3237",
"~#	c #393235",
"{#	c #352E31",
"]#	c #2B2528",
"^#	c #201C1F",
"/#	c #181519",
"(#	c #141317",
"_#	c #060608",
":#	c #100E13",
"<#	c #141215",
"[#	c #1B171B",
"}#	c #262125",
"|#	c #443B3E",
"1#	c #352D32",
"2#	c #322B30",
"3#	c #312A2F",
"4#	c #302A2E",
"5#	c #383135",
"6#	c #383133",
"7#	c #241F23",
"8#	c #1A171A",
"9#	c #121115",
"0#	c #111014",
"a#	c #131116",
"b#	c #ACD6E8",
"c#	c #0E0D11",
"d#	c #100E12",
"e#	c #1B181C",
"f#	c #2F292E",
"g#	c #2F282E",
"h#	c #30292E",
"i#	c #322A30",
"j#	c #383034",
"k#	c #393135",
"l#	c #3B3436",
"m#	c #352F33",
"n#	c #1E1B1E",
"o#	c #151316",
"p#	c #110F13",
"q#	c #0F0D11",
"r#	c #131115",
"s#	c #1E1B20",
"t#	c #231F23",
"u#	c #252125",
"v#	c #282429",
"w#	c #2E282C",
"x#	c #342E30",
"y#	c #40363B",
"z#	c #3E3739",
"A#	c #342D30",
"B#	c #2D282B",
"C#	c #252124",
"D#	c #1F1B1F",
"E#	c #1D191D",
"F#	c #1A171B",
"G#	c #141216",
"H#	c #0F0E12",
"I#	c #131215",
"J#	c #0F0F12",
"K#	c #151418",
"L#	c #18161B",
"M#	c #1B181E",
"N#	c #1C191F",
"O#	c #1D1A20",
"P#	c #242026",
"Q#	c #3E3638",
"R#	c #393034",
"S#	c #3A3236",
"T#	c #3B3335",
"U#	c #383233",
"V#	c #282328",
"W#	c #211C21",
"X#	c #1F1B20",
"Y#	c #201C21",
"Z#	c #1A171C",
"`#	c #161319",
" $	c #151218",
".$	c #141218",
"+$	c #0E0C10",
"@$	c #121014",
"#$	c #050508",
"$$	c #1E1B21",
"%$	c #2A252A",
"&$	c #4C4145",
"*$	c #504548",
"=$	c #504649",
"-$	c #4A4244",
";$	c #3C3638",
">$	c #2B2529",
",$	c #201B20",
"'$	c #201C20",
")$	c #211D21",
"!$	c #221D21",
"~$	c #211C20",
"{$	c #221D22",
"]$	c #221D23",
"^$	c #1F1C22",
"/$	c #1C191E",
"($	c #1D191F",
"_$	c #1F1B22",
":$	c #1A171D",
"<$	c #17141A",
"[$	c #161419",
"}$	c #111015",
"|$	c #121114",
"1$	c #ACD6EB",
"2$	c #09080C",
"3$	c #161318",
"4$	c #18151B",
"5$	c #41383D",
"6$	c #4F4448",
"7$	c #53484B",
"8$	c #4C4346",
"9$	c #272227",
"0$	c #1B171E",
"a$	c #1A161D",
"b$	c #1B181F",
"c$	c #1D1820",
"d$	c #1D1720",
"e$	c #1C171F",
"f$	c #1C1720",
"g$	c #1D1920",
"h$	c #1F1A22",
"i$	c #1C181F",
"j$	c #201B23",
"k$	c #17151B",
"l$	c #16141A",
"m$	c #151319",
"n$	c #09080D",
"o$	c #100E11",
"p$	c #121013",
"q$	c #151317",
"r$	c #18151A",
"s$	c #4E4347",
"t$	c #51464A",
"u$	c #52464A",
"v$	c #4B4145",
"w$	c #2A2529",
"x$	c #211C24",
"y$	c #1E1A20",
"z$	c #221C25",
"A$	c #231D26",
"B$	c #201C23",
"C$	c #1F1B23",
"D$	c #17151A",
"E$	c #15131A",
"F$	c #131217",
"G$	c #110F14",
"H$	c #0D0C10",
"I$	c #0A0A0E",
"J$	c #0F0E11",
"K$	c #1C181E",
"L$	c #2B262B",
"M$	c #4C4247",
"N$	c #50454A",
"O$	c #51454A",
"P$	c #4A4144",
"Q$	c #2B262A",
"R$	c #1F1A21",
"S$	c #1F1B21",
"T$	c #1C1920",
"U$	c #1E1A21",
"V$	c #4C4246",
"W$	c #4F4549",
"X$	c #504549",
"Y$	c #2C272B",
"Z$	c #1A171E",
"`$	c #151318",
" %	c #0E0D10",
".%	c #0D0B0F",
"+%	c #201D23",
"@%	c #4F4449",
"#%	c #0C0B0E",
"$%	c #18161C",
"%%	c #4B4146",
"&%	c #4E4449",
"*%	c #1F1C23",
"=%	c #0B0A0E",
"-%	c #0A090C",
";%	c #070608",
">%	c #0B0A0D",
",%	c #19161C",
"'%	c #201C22",
")%	c #4A4044",
"!%	c #4E4448",
"~%	c #1D1A21",
"{%	c #08070A",
"]%	c #4E4447",
"^%	c #2B272B",
"/%	c #0D0C0F",
"(%	c #0C0B0F",
"_%	c #1B171D",
":%	c #4B4144",
"<%	c #201D24",
"[%	c #09090B",
"}%	c #17141B",
"|%	c #292329",
"1%	c #1D1921",
"2%	c #0C0A0E",
"3%	c #0C0A0D",
"4%	c #0D0B0E",
"5%	c #0E0C11",
"6%	c #483F42",
"7%	c #221C24",
"8%	c #201B22",
"9%	c #18141A",
"0%	c #08070B",
"a%	c #221F21",
"b%	c #433B3E",
"c%	c #2E282A",
"d%	c #2D2729",
"e%	c #272224",
"f%	c #211D20",
"g%	c #1E1A1F",
"h%	c #1A1719",
"i%	c #181416",
"j%	c #131013",
"k%	c #110E12",
"l%	c #171319",
"m%	c #161218",
"n%	c #171419",
"o%	c #19151B",
"p%	c #0A0A0D",
"q%	c #100D12",
"r%	c #0F0C11",
"s%	c #0F0D12",
"t%	c #B5D8E9",
"u%	c #AED6EA",
"v%	c #C4DFED",
"w%	c #C5DFED",
"x%	c #C0DEED",
"y%	c #B1D8EA",
"z%	c #C3DFED",
"A%	c #B9DBEB",
"B%	c #BADBEB",
"C%	c #B7DAEB",
"D%	c #AFD7EA",
"            . . + + . .               @ # $ % & * = - ; > , ' )       . + + + ! ~     { ]                         ^ ^ @ ",
". .           . . . .                 @ / $ % ( _ : < $ [ } | @     . + + + + ! ~     1 1                         ^ | | ",
". . .                                   1 2 ( 3 4 ( 5 6 , 7 ^       . + + + + ! ~                                 ^ ' 8 ",
"  . . .     .                             1 9 0 a ( [ | | ^         ! + + + + ! ~         .                       @ | 7 ",
"  . ! + ! ! . .                             b c a d * } |           ! + + + ! ! !                                 @ e f ",
"  . + + ! ! ! g                 @ @ @ @ @ h _ i j 0 , | @       . ! + + + .   ! !                                 @ k l ",
"  . . + + ! + g   ^ @   @       @ m ' ' n e o o 4 9 | @     ! ! + + + + .     ! !               {                   ; p ",
"    . q + ! . .   @ @   @ @     r 7 7 7 n s t u e h @   .   . ! ! + + +                                             v $ ",
"    . { . .       @     r @     ' 7 8 , w ( k s h   . ! ! .     . ! + !                   { {                           ",
"@                             ^ | x * = y 5 w h @ . + + + + { { { 1 1         1         .   { { 1     1                 ",
"@                           r | [ e z A k 6 B C C D D C C D E E E E E E F G             . . { { { 1 1 1                 ",
"                          @ ' } H I J K L M N N O P P Q Q Q Q O O O R R O S T U V W X     {     ! 1 1                   ",
"                          @ @ [ Y Z Z Z `  ...+.@.#.$.%.%.%.%.&.&.&.*.*.=.-.;.S >.,.'.).                                ",
"                          ) !.~.{.].^./.(._.:.<.[.}.|.1.1.2.2.2.[.[.[.[.[.3.4.5.6.7.+.8.9.0.a.b.                        ",
"                        c.....&.&.%.d.d.e.f.g.h.i.i.i.j.k.k.l.h.h.h.h.h.h.m.n. .o.p.q.r.s.t.u.v.U a.              @     ",
"                    R w.8.5.x.y.z.A.B.C.D.E.F.G.H.H.H.I.I.J.J.G.G.G.H.H.H.J.K.L.M.N.O.P.d.(.(.Q.R.U S.T.                ",
"                U.V.W.X.Y.Z.`. +.+j.F.F.F.G.I.I.++++++++++I.I.I.++@+@+@+I.I.#+$+%+&+*+=+-+;+:.>+,+'+)+!+~+              ",
"                {+]+^+]+/+(+C._+j.J.J.J.J.I.I.++++++++++++++@+:+I.F.F.F.<+[+}+|+1+2+3+4+5+6+7+8+9+0+a+b+c+        @     ",
"              +.d+d.e+f+h.E.K.K.J.++++++++++++++++++++++I.F.g+L.M.h+$+M.N.5+|+|+i+j+k+$+l+g+g+m+G.n+2.o+{.              ",
"            p+q+r+s+t+K.H.G.m+J.u+++++++++v+++++++++J.w+x+$+k+y+j+z+A+k+k+k+N.M.M.B+C+D+E+E+G.F+G+F.H+I+J+K+L+          ",
"          c.M+N+O+P+Q+I.I.G.H.J.J.u+R+S+T+S+R+++m+<+h+U+U+U+A+y+y+k+V+M.M.M.L.w+G.G.G.G.E+E+E+G.I.J.i.W+0+X+Y+Z+        ",
"          c.`+ @.@J.++I.I.I.+++++@++R+@@S+@+I.<+#@$@%@%+&@U+V+V+*@L.w+G.H.G.G.E+F+G.I.I.G.E+E+G.J.J.Q+l.=@a+-@;@        ",
"        >@,@@.'@)@++++I.I.++R+++F.F.H.J.<+k.M.[+N.!@$@$@M.D+w+F.F.F.F+I.I.H.G.E+G.I.I.I.G.F+F+H.J.J.J.J.~@{@]@^@/@      ",
"    @ (@_@:@-.<@m.++I.I.I.I.F.k.[@k+N.[@$@h+h.h.M.l+D+g+g+G.I.I.I.I.F+I.G.G.E+E+G.G.I.H.H.I.I.I.H.J.J.K.|.}@|@1@        ",
"      2@3@4@5@{+6@j.m+g+L.L.7@N.O.|+5+k+8@L.m+G.G.E+G.G.G.H.I.G.G.G.H.G.E+E+E+E+G.G.G.G.H.++++++++++K.m.9@t.0@a@        ",
"      b@c@d@e@N+f@g@h@[+$@$@[+[+[@N.[+l+D+F.I.I.I.I.I.F+G.G.G.G.G.E+G.G.E+E+E+E+E+E+G.H.i@++++++v+++j@n.k@,@l@0.        ",
"      m@n@o@p@q@r@:.s@t@[+M.L.L.L.E.K.G.F+I.++I.I.I.I.I.G.G.G.G.G.E+E+G.G.G.G.E+E+G.G.H.i@++++I.J.l.u@q@o+v@w@x@        ",
"^ @ @ m@y@z@A@B@ .r.C@e+(+D@G.F+E@I.H.H.I.++I.I.I.I.++++I.G.G.G.G.G.F+F+I.H.H.G.G.G.H.++F@R+J.G@u@H@I@Q J@K@L@M@        ",
"^ @ @ N@O@P@Q@R@S@v.{+T@r@ +U@A.C.J.++:+@+++++I.I.I.++++++I.I.I.I.I.F+I.++++++v+@+++I.V@W@.@6@H@o+M+X@Y@Z@`@ #.#        ",
"^ ^ @ N@O@+#@###$#%#U.&# @*#=#-#;#C.>#H.H.J.,#++++++++++++++++++I.I.I.++++++i@J.,#u+'#)#!#-#{.M+~#{#]#^#/#(#@#(#        ",
"| ^ ^ _#O@:#@#.#+#<#[#}#M {.5.|#{+1#2#2#3#8+D.Q+>#J.J.>#>#>#>#>#>#>#>#>#Q+i.)@)#4#=@H@5#4.Q.;.6#Y@7#8#9#0#a#.#a#        ",
"b#@ ^ _#O@+#@#a#c#d#.#e#K@B@Q 5#0+o+k@M+N+3.1.f#g#f#h#W+f#h#f#f#f#f#f#f#4#i#1#j#k#,@l#)+m#J@U.K@n#o#p#q#+#r#a#r#        ",
"@ @ @ _#O@+#.#a#:#0#(#Q@s#t#u#v#w#v@x#{#6#X+<@^+K+y#-#J+..-#`+z#z#z#z#z#4.4.k@A#U.Y@U.B#C#D#E#F#G#H#q#c#P@I#r#r#        ",
"      _#O@J#.#a#+#9#K#L#M#N#O#P#~.k@Q#5@z#s.,@R#R#k#S#o+k@T#c.S U#U#S S ~#~#J@V#W#X#Y#X#Z#`# $.$M@H#c#+$P@r#r#@$        ",
"      #$y@P@G#a#+#r# #L#M#N#$$%$]+&$*$=$-$;$>$,$$#D#'$)$!$!$W#'$'$'$~$W#W#{$]$^$/$($_$$$:$<$[$.$}$H#+$+$d#r#|$@$      1$",
"      #$2$d#G#r#d#@$3$4$M#($_$.@5$6$7$7$8$s.9$0$a$4$##b$c$d$e$e$f$f$f$c$c$g$_$h$i$O#j$_$M#k$l$m$a#:#c#+$d#r#@$@$    . ! ",
"      _#n$:#G#r#o$p$q$r$M#g$^$P+J+s$t$u$v$M+w$x$j$g$y$@@@+@+z$z$z$z$G+G+G+I.A$B$N#O#C$_$M#D$l$E$F$G$H#H$d#r#9#9#    . q ",
"        I$G$@#r#J$p#@#r$K$O#^$L$4.M$N$O$P$s.Q$R+x$R$S$R+++++I.I.++++I.I.F+F+I.B$N#T$_$h$0$<$l$m$@#0#q#H$d#r#r#9#    . . ",
"          9#G#9#q#+#@#4$N#U$B$L$4.V$W$X$P$;$Y$++@+S$S$R+++++++++I.I.++++I.I.I.^$M#N#h$h$Z$<$[$`$.#p# %.%J$r#r#9#        ",
"          H#P@J$H$+#@#4$N#$$+%P+T@V$@%W$P$;$Y$++++S$U$S+v+++++++I.I.I.I.I.I.I.^$M#b$R$h$Z$l$[$`$a#+# %#%+$d#J$ %        ",
"          n@2@n@#%P@(#$%O#S$B$m.K+%%&%W$P$;$Y$++R+y$U$S+v+++++++++I.I.I.I.I.I.*%M#b$U$h$Z$l$m$.$r#+# %#%#%=%-%          ",
"            ;%b@>%+#`$,%O#$$'%W@{+)%!%W$P$;$Y$++S+~%U$S+++++++++++++++I.I.I.++^$M#M#R$h$M#k$m$.$a#P@ %#%-%{%m@          ",
"              {%#%H#@###($O#$$G@'@)%]%X$P$;$^%v+S+~%~%S+++++++++++++++++++++++'%M#K$U$h$M#k$m$.$@#p#/%>%O@m@            ",
"                (%c#@$[$_%K$O#G@{+)%!%X$:%s.^%@+S+~%~%<%++++++++++++++++++++++'%K$i$R$R$M#k$m$@#.#P@>%[%O@              ",
"                  .%+$p# $}%M#|%{+v$W$X$)%o.L$@+x$1%~%<%++++++H.++++++++++++++'%K$i$R$R$_%D$`$a#d#2%{%{%                ",
"@                 @ 3%4%5%:# #}#s.v$]%]%6%>+W@R+7%U$U$S+++++I.J.J.J.J.++++++v+8%M#0$g$($9%9#p#q##%y@                    ",
"@               ^ ^ @ @ 0%2$P@a%T b%5.6.{.|.'#@@@@O#y$@@R+@+++++++++++++R+R+@@($r$D$,%4$a#H$>%-%                        ",
"@ @             ^ ^ @ @ ^ ^ r @ S.c%d%p@e%f%g%R$h$i$K$R$R$8%8%@@@@@@8%8%S$S$`@3$p#H#d#d#                                ",
"@ @ @                               h%i%j%k%a#l%9%m%3$n%9%9%r$o%o%o%r$<$n%n%3$@$/%p%O@                                  ",
"n , ,   @ @ @                             y@=%5%q%r%5%r%q#q#q#q#s%q#c#+$+$+$                                            ",
"t%t%0 u%' m | @                                                                                                         ",
"v%w%x%y%' 7 7 |                                                                                                         ",
"z%v%x%y%' | ' @                               @                                                                         ",
"A%B%C%D%@ @ .                                 ^ @                                                                       ",
"D%D%D%1 @ @                                     ^ @                                                                     ",
"                                                ^ ^                                                                     ",
"            . .                                 ^ @ @                                                                   ",
"            ! .                                   @ @                                                                   ",
"! ! .                                                                                                                   ",
"+ + +                                                                                                                   "};
