/* XPM */
static char * rink_xpm[] = {
"60 60 175 2",
"  	c #ACD6EA",
". 	c #ACD7EA",
"+ 	c #ADD8EB",
"@ 	c #ACD6E9",
"# 	c #ADD7E9",
"$ 	c #B2D8EB",
"% 	c #B4D9EB",
"& 	c #B2D8EA",
"* 	c #ADD5E7",
"= 	c #B2D7EA",
"- 	c #B7DAED",
"; 	c #B3D9EB",
"> 	c #AFD6E9",
", 	c #ADD5E8",
"' 	c #ABD5E8",
") 	c #ABD6E9",
"! 	c #ADD7EB",
"~ 	c #ADD6EB",
"{ 	c #ADD7EA",
"] 	c #AED7EA",
"^ 	c #ACD5E9",
"/ 	c #ADD6E9",
"( 	c #B4D8EA",
"_ 	c #B0D6E8",
": 	c #B3D7EA",
"< 	c #B6DAEC",
"[ 	c #AED6E8",
"} 	c #ACD5E7",
"| 	c #ACD5E8",
"1 	c #ADD6EA",
"2 	c #B1D7EA",
"3 	c #B5D7E9",
"4 	c #B4D7E9",
"5 	c #B3D8EB",
"6 	c #B0D7EA",
"7 	c #ABD4E7",
"8 	c #ABD4E6",
"9 	c #B0D6E9",
"0 	c #B3D7E9",
"a 	c #B8D9EB",
"b 	c #AFD6E8",
"c 	c #B3D7E8",
"d 	c #B4D7EA",
"e 	c #B1D7E9",
"f 	c #B5D9EA",
"g 	c #ACD7EB",
"h 	c #AED6E9",
"i 	c #B4D7E8",
"j 	c #B7D8EA",
"k 	c #B5D9EB",
"l 	c #BCDDED",
"m 	c #ABD5E7",
"n 	c #ADD6E8",
"o 	c #B4D8E9",
"p 	c #B9DBEC",
"q 	c #ADD8EA",
"r 	c #ABD5E9",
"s 	c #B3D8EA",
"t 	c #B6D9EA",
"u 	c #B5D8EA",
"v 	c #AFD7EB",
"w 	c #B0D7E9",
"x 	c #ACD4E6",
"y 	c #B6D9EC",
"z 	c #B5D9E9",
"A 	c #B7D9EB",
"B 	c #ABD6E8",
"C 	c #B2D8E9",
"D 	c #BBDCEB",
"E 	c #C1DEEC",
"F 	c #BBDBEB",
"G 	c #ACD6E8",
"H 	c #B8DAEA",
"I 	c #C4E0ED",
"J 	c #CCE3ED",
"K 	c #BFDDEA",
"L 	c #BDDDEC",
"M 	c #C7E1EE",
"N 	c #AAD4E7",
"O 	c #AAD5E7",
"P 	c #BADCEC",
"Q 	c #BFDEED",
"R 	c #BFDDED",
"S 	c #BDDDEE",
"T 	c #AAD5E8",
"U 	c #A9D5E8",
"V 	c #AED7EB",
"W 	c #B1D8EB",
"X 	c #B4DAEC",
"Y 	c #B8DBED",
"Z 	c #B9DCEC",
"` 	c #B8DBEC",
" .	c #AFD8EB",
"..	c #B0D7EB",
"+.	c #B5D9EC",
"@.	c #B7DBED",
"#.	c #B4D9EC",
"$.	c #B2D9EB",
"%.	c #B0D9EA",
"&.	c #AED7E9",
"*.	c #B0D8EB",
"=.	c #B5DAED",
"-.	c #ABD7E8",
";.	c #AED8EB",
">.	c #ACD7E9",
",.	c #AED6EA",
"'.	c #AFD7EA",
").	c #B0D6E7",
"!.	c #ACD5E6",
"~.	c #B6D9E9",
"{.	c #BEDDEB",
"].	c #AFD7E9",
"^.	c #BBDBEA",
"/.	c #C5E0EC",
"(.	c #ACD4E7",
"_.	c #B9DAEA",
":.	c #C2DEEB",
"<.	c #C2DFEC",
"[.	c #B2D7E7",
"}.	c #B2D7E9",
"|.	c #ADD5E9",
"1.	c #B7D9E9",
"2.	c #BCDBEB",
"3.	c #B7D9E8",
"4.	c #C2DDEA",
"5.	c #CAE2ED",
"6.	c #BFDCEB",
"7.	c #AED5E7",
"8.	c #AED5E8",
"9.	c #B7D8E8",
"0.	c #BFDBE9",
"a.	c #C7DFEB",
"b.	c #CDE3ED",
"c.	c #C0DDEB",
"d.	c #B2D6E7",
"e.	c #C4DEEB",
"f.	c #CBE1EB",
"g.	c #C9E0EB",
"h.	c #C2DEEA",
"i.	c #B1D6E8",
"j.	c #BBDAE9",
"k.	c #CCE2ED",
"l.	c #CEE3EC",
"m.	c #C4DEEA",
"n.	c #B2D7E8",
"o.	c #C6DFEB",
"p.	c #BEDCE9",
"q.	c #B6D8E8",
"r.	c #B9D9E8",
"s.	c #C8E0EC",
"t.	c #CEE4EE",
"u.	c #BFDCEA",
"v.	c #B4D8E8",
"w.	c #ACD6EB",
"x.	c #BCDCEA",
"y.	c #C6E0ED",
"z.	c #BCDCEB",
"A.	c #CAE2EE",
"B.	c #CDE3EE",
"C.	c #C7E1ED",
"D.	c #B9DAE9",
"E.	c #B3D9EC",
"F.	c #CBE3EE",
"G.	c #CCE3EE",
"H.	c #C1DEEB",
"I.	c #C7E0ED",
"J.	c #C5DFED",
"K.	c #B9DBEB",
"L.	c #B5D8E9",
"M.	c #C4DFED",
"N.	c #C0DEED",
"O.	c #B1D8EA",
"P.	c #C3DFED",
"Q.	c #BADBEB",
"R.	c #B7DAEB",
"            . . + + . .               @ # $ % & * = - ; > , ' )       . + + + ! ~     { ]                         ^ ^ @ ",
". .           . . . .                 @ / $ % ( _ : < $ [ } | @     . + + + + ! ~     1 1                         ^ | | ",
". . .                                   1 2 ( 3 4 ( 5 6 , 7 ^       . + + + + ! ~                                 ^ ' 8 ",
"  . . .     .                             1 9 0 a ( [ | | ^         ! + + + + ! ~         .                       @ | 7 ",
"  . ! + ! ! . .                             b c a d * } |           ! + + + ! ! !                                 @ e f ",
"  . + + ! ! ! g                 @ @ @ @ @ h _ i j 0 , | @       . ! + + + .   ! !                                 @ k l ",
"  . . + + ! + g   ^ @   @       @ m ' ' n e o o 4 9 | @     ! ! + + + + .     ! !               {                   ; p ",
"    . q + ! . .   @ @   @ @     r 7 7 7 n s t u e h @   .   . ! ! + + +                                             v $ ",
"    . { . .       @     r @     ' 7 8 , w ( k s h   . ! ! .     . ! + !                   { {                           ",
"@                             ^ | x * = y 5 w h @ . + + + + { { { 1 1         1         .   { { 1     1                 ",
"@                           r | [ e z A k 6 n B @ { + + + ! { { 1 1 1                   . . { { { 1 1 1                 ",
"                          @ ' } C D E F e n G B   ! + + ! ! 1     1                       {     ! 1 1                   ",
"                          @ @ [ H I J K * 8 m ' @ ! + + !                                                               ",
"                          ) / f L I M F 7 N O |   ! + + + .                                                             ",
"                          @ 6 P Q R S ; T U ' ^ { ! + + + + .                                                     @     ",
"                        V W X Y Z ` X  .) T ' @   ! ! + + + ! ! !                                                       ",
"                      1 ..+.@.#.$.%.&.@ ' ' ' @ @   . ! ! ! ! !                                                         ",
"                      1 *.=.- W # -.B ' ' ' @ @ @                                                                 @     ",
"                        ;.*.W V >.-.@ @ @                                                                               ",
"                        ! ! V ! . . .                                                           1 ,.1                   ",
"                        ! ! ! ! ! ! .                       @                                 1 '.'.'.1                 ",
"                                                        @ ' ' @                               1 v *.v 1                 ",
"                                                  @ ^ ^ ' N 7 m ^                               ] V ]                   ",
"    @                                           @ @ , [ _ ).!.8 7 ^                                                     ",
"                ^           ^   @ )               @ &.~.{.{.).8 7 | ^ ^                                                 ",
"            @ ' ^             @ ^ ^               @ ].^././.c 8 8 7 (.|                       @                         ",
"            ' ' r             @ @ ^                 ]._.:.<.[.8 8 8 8 7 @                   ^ ' @                       ",
"^ @ @         @ @ @ @ ^     @                       1 w C }.* 7 7 m 8 7 @             1 |.|., | @                       ",
"^ @ @ @           @ @     @ @ @                         @ ^ ^ r ^ | ' | @         @ @ e 1.2.~., | @                     ",
"^ ^ @ @ @ @               @ ^ @                                     @ ^         @ @ b 3.4.5.6.7.' )                     ",
"| ^ ^ | ^ ^                               r ^ ^                               @ | 8.9.0.a.b.c.7.m )                     ",
"G @ ^ ^ ^ ^                               @ ^                                 @ 7 d.e.f.g.h.1.n |   . .                 ",
"@ @ @ ^ ^ ^                                                                 @ , i.j.k.l.m.c | @     ! .                 ",
"                  ^ @                                                     @ , n.c.5.o.p.q.[ ^                           ",
"                  @ @                                                     h n.r.s.t.u.v.[ G @                         w.",
"                                                                        @ s x.h.s.y.H b ' @   .                     . ! ",
"            1           @ @ @                                         ^ [ z.A.B.:.v.b | ' @                         . q ",
"                    V *.6 h | @                                     @ e {.C.5./.D.* } | @ @                         . . ",
"                @   v E.% 9 } @                                     @ ~.F.G.H.t b | G @ @                               ",
"                    v $ ( 9 | @                                     | o I.J._.6   @                   1                 ",
"                    ,.> > 8.|     @ @                               @ w K.H 2 1                                         ",
"                    @ | | ' r   @ ^ @                                   / @ ^                                           ",
"                        @ @                                                                                             ",
"                                                                                                                        ",
"                        ^ ^                                                                                             ",
"@                 @     @ ^ ^                                                                                           ",
"@               ^ ^ @ @ @ ^ ^ @                                                                                         ",
"@ @             ^ ^ @ @ ^ ^ r @                                                                                         ",
"@ @ @                                                                                                                   ",
"n , ,   @ @ @                                                                                                           ",
"L.L.0 ,.' m | @                                                                                                         ",
"M.J.N.O.' 7 7 |                                                                                                         ",
"P.M.N.O.' | ' @                               @                                                                         ",
"K.Q.R.'.@ @ .                                 ^ @                                                                       ",
"'.'.'.1 @ @                                     ^ @                                                                     ",
"                                                ^ ^                                                                     ",
"            . .                                 ^ @ @                                                                   ",
"            ! .                                   @ @                                                                   ",
"! ! .                                                                                                                   ",
"+ + +                                                                                                                   "};
